<?xml version="1.0" encoding="UTF-8" standalone="no"?>
<svg xmlns="http://www.w3.org/2000/svg" viewBox="0 0 64 64">
  <g id="Layer_12" data-name="Layer 12">
    <path fill="#FFFFFF" d="M53.16,3.94H45.1a1,1,0,0,0-.9.58L40,13.61H33A11.63,11.63,0,0,0,21.45,3c-14.8.53-15.64,21.42-1,23.18V60a1,1,0,0,0,1,1H47.92a1,1,0,0,0,1-1V14.61a1,1,0,0,0-1-1H42.21c1.61-3.51,3-6.46,3.53-7.67h7.42A1,1,0,0,0,53.16,3.94ZM46.92,54.86H22.45V31.32H46.92ZM22.45,29.32V26.18A11.63,11.63,0,0,0,33,15.61h6.06c-2.35,5.12-4.9,10.7-6.24,13.71Zm0-5.14V15.61H31A9.64,9.64,0,0,1,22.45,24.18ZM11.84,14.61c.4-12.15,17.56-13,19.18-1H21.45a1,1,0,0,0-1,1v9.57A9.63,9.63,0,0,1,11.84,14.61ZM22.45,59V56.86H46.92V59ZM46.92,15.61V29.32H35c1.48-3.31,4-8.81,6.26-13.71Z" />
  </g>
</svg>